<svg xmlns:xlink="http://www.w3.org/1999/xlink" xmlns="http://www.w3.org/2000/svg" width="40" height="40" viewBox="0 0 40 40" fill="none"><script xmlns=""/><script xmlns=""/>
<g id="Art 2">
<path id="Union" d="M29.8138 8.17431C30.0289 8.69364 30.1703 9.22512 30.2427 9.7571C30.7747 9.82949 31.3063 9.97085 31.8257 10.186L37.5626 12.5623C37.671 12.6072 37.7225 12.7314 37.6776 12.8398L35.3013 18.5767C35.0861 19.0962 34.81 19.5722 34.4849 19.9997C34.8102 20.4273 35.0863 20.9033 35.3015 21.423L37.6778 27.1599C37.7227 27.2683 37.6713 27.3925 37.5629 27.4374L31.826 29.8137C31.3064 30.0289 30.7745 30.1703 30.2422 30.2427C30.1698 30.7748 30.0285 31.3063 29.8133 31.8258L27.437 37.5627C27.3921 37.671 27.2679 37.7225 27.1595 37.6776L21.4226 35.3013C20.9033 35.0861 20.4274 34.8102 20 34.4852C19.5726 34.8103 19.0968 35.0862 18.5773 35.3014L12.8404 37.6777C12.7321 37.7226 12.6078 37.6711 12.563 37.5627L10.1867 31.8259C9.97145 31.3063 9.83008 30.7746 9.7577 30.2424C9.2253 30.1701 8.69339 30.0287 8.17366 29.8134L2.43676 27.4371C2.3284 27.3922 2.27695 27.268 2.32183 27.1596L4.69813 21.4227C4.91334 20.9031 5.18936 20.4272 5.51453 19.9997C5.18953 19.5723 4.91363 19.0965 4.6985 18.5771L2.3222 12.8402C2.27732 12.7319 2.32877 12.6076 2.43712 12.5627L8.17402 10.1864C8.69344 9.9713 9.22501 9.82994 9.75708 9.75755C9.82944 9.22519 9.97083 8.69333 10.1861 8.17363L12.5624 2.43674C12.6073 2.32839 12.7315 2.27693 12.8399 2.32182L18.5768 4.69812C19.0966 4.91343 19.5727 5.1896 20.0004 5.51497C20.4278 5.18989 20.9037 4.91395 21.4231 4.69878L27.16 2.32249C27.2684 2.2776 27.3926 2.32906 27.4375 2.43741L29.8138 8.17431Z" stroke="#DDEDED"/>
<path id="Union_2" d="M24.5413 5.319C24.9388 5.71647 25.2727 6.1534 25.5432 6.61718C26.0625 6.48045 26.6077 6.40762 27.1699 6.40762H33.3795C33.4968 6.40762 33.5919 6.50269 33.5919 6.61998V12.8295C33.5919 13.3919 33.519 13.9373 33.3822 14.4567C33.8463 14.7272 34.2836 15.0614 34.6814 15.4592L39.0722 19.85C39.1551 19.9329 39.1551 20.0674 39.0722 20.1503L34.6814 24.5411C34.2836 24.9389 33.8464 25.273 33.3823 25.5436C33.519 26.0629 33.5919 26.6081 33.5919 27.1703V33.3799C33.5919 33.4971 33.4968 33.5922 33.3795 33.5922H27.1699C26.6077 33.5922 26.0626 33.5194 25.5433 33.3827C25.2728 33.8466 24.9388 34.2836 24.5412 34.6812L20.1504 39.072C20.0674 39.1549 19.933 39.1549 19.8501 39.072L15.4592 34.6812C15.0616 34.2835 14.7275 33.8464 14.457 33.3824C13.9374 33.5193 13.3919 33.5922 12.8293 33.5922H6.61974C6.50246 33.5922 6.40738 33.4971 6.40738 33.3799V27.1703C6.40738 26.6079 6.48025 26.0625 6.61706 25.5431C6.15324 25.2726 5.71626 24.9386 5.31875 24.5411L0.927922 20.1503C0.844991 20.0674 0.844989 19.9329 0.92792 19.85L5.31875 15.4592C5.71629 15.0616 6.15331 14.7276 6.61718 14.4571C6.4803 13.9376 6.4074 13.3921 6.4074 12.8296V6.62C6.4074 6.50272 6.50247 6.40765 6.61975 6.40765H12.8293C13.392 6.40765 13.9376 6.48058 14.4572 6.61751C14.7277 6.15361 15.0617 5.71656 15.4593 5.31899L19.8501 0.928165C19.9331 0.845234 20.0675 0.845234 20.1505 0.928165L24.5413 5.319Z" fill="#DDEDED" stroke="url(#paint0_linear_11155_6606)"/>
</g>
<defs>
<linearGradient id="paint0_linear_11155_6606" x1="0.865723" y1="20.0001" x2="39.1344" y2="20.0001" gradientUnits="userSpaceOnUse">
<stop stop-color="#2FB68E"/>
<stop offset="1" stop-color="#A3DE7C"/>
</linearGradient>
</defs>
</svg>